# xmcd
#
# Track frame offsets: 
#        150
#        18755
#        30706
#        47376
#        62523
#        80786
#        94015
#        107429
#        126527
#        141553
#        154937
#        177520
#
# Disc length: 2575 seconds
#
# Revision: 0
# Processed by: cddbd v1.5.2PL0 Copyright (c) Steve Scherf et al.
# Submitted via: ExactAudioCopy v1.0b3
#
DISCID=9e0a0d0c
DTITLE=Jane Marie - Gypsy Cowgirl
DYEAR=2001
DGENRE=Country
TTITLE0=Let's Get This Party Started
TTITLE1=Why's He Always a Fool
TTITLE2=Right as Rain
TTITLE3=Manitou Moon
TTITLE4=I Never Told a Soul
TTITLE5=Cowboy Lullaby
TTITLE6=Wishing Well
TTITLE7=Barkin' Dog
TTITLE8=Hollywood Love
TTITLE9=If You've Loved Once
TTITLE10=Candles and Stars
TTITLE11=Lifted By the Wind
EXTD=
EXTT0=
EXTT1=
EXTT2=
EXTT3=
EXTT4=
EXTT5=
EXTT6=
EXTT7=
EXTT8=
EXTT9=
EXTT10=
EXTT11=
PLAYORDER=
